PathFileType	4	(X/Y/Z)	C:/Users/beibeiliu/ov580/test_trc/User2\sequence.5_training_dense_right.trc
DataRate	CameraRate	NumFrames	NumMarkers	Units	OrigDataRate	OrigDataStartFrame	OrigNumFrames
120	120	24	19	mm	120	1	58
Frame#	Time	ThumbCMC			ThumbMCP			ThumbIP			ThumbTip			IndexMCP			IndexPIP			IndexTip			MiddleMCP			MiddlePIP			MiddleTip			RingMCP			RingPIP			RingTip			PinkyMCP			PinkyPIP			PinkyTip			BackHand1			BackHand2			BackHand3	
		X0	Y0	Z0	X1	Y1	Z1	X2	Y2	Z2	X3	Y3	Z3	X4	Y4	Z4	X5	Y5	Z5	X6	Y6	Z6	X7	Y7	Z7	X8	Y8	Z8	X9	Y9	Z9	X10	Y10	Z10	X11	Y11	Z11	X12	Y12	Z12	X13	Y13	Z13	X14	Y14	Z14	X15	Y15	Z15	X16	Y16	Z16	X17	Y17	Z17	X18	Y18	Z18	
0	0	108.164	5.90591	-16.0471	115.161	14.9046	-52.8618	104.996	13.7172	-88.1239	83.0171	7.49541	-105.286	82.0804	-25.951	-89.114	69.982	3.67984	-98.3751	82.216	15.0742	-69.364	56.6885	-24.8604	-86.4329	52.5533	10.9316	-90.0556	66.7473	12.4539	-51.036	38.6026	-13.8316	-76.8417	40.3096	16.9083	-71.0026	56.8199	9.50427	-37.8969	25.7082	-10.8322	-62.151	33.5484	20.4131	-53.3825	48.1239	12.5556	-26.065	56.4185	-42.4591	-21.6727	65.6268	-36.0315	13.9958	94.6516	-31.2077	-10.446	
1	0.00833333	120.034	0.217221	-20.8072	124.548	8.30756	-50.0066	118.673	2.22637	-88.4034	103.357	-3.51864	-109.721	102.81	-37.3489	-87.5092	89.4461	-9.8125	-102.326	93.7281	2.04765	-67.7092	81.3721	-40.5084	-86.9707	70.2472	-4.4306	-92.8388	80.7038	0.656314	-54.6804	59.3142	-30.8293	-82.5458	49.6092	-3.45527	-78.6924	69.4144	-2.66185	-44.612	43.593	-30.8523	-66.3016	45.2397	2.68733	-62.2721	61.561	-3.54861	-34.4879	73.6757	-52.124	-21.2403	78.1148	-41.8136	13.5153	109.954	-37.8472	-10.8983	
2	0.0166667	130.438	4.19789	-16.0059	134.385	7.24694	-51.0985	133.711	2.30956	-88.0879	118.593	-9.66568	-107.179	123.566	-41.2503	-86.1752	109.782	-18.5686	-104.429	104.154	-2.36237	-71.5292	101.992	-46.7602	-91.0749	87.5567	-15.4927	-96.4119	93.1291	-6.52494	-56.5797	78.0673	-45.1342	-83.3233	69.5373	-17.7791	-85.6694	79.8777	-11.651	-49.9485	63.6989	-45.7374	-71.7223	57.3589	-14.4535	-70.6734	69.7546	-10.7827	-42.6177	91.8344	-59.3528	-21.6388	90.5051	-49.5091	11.7232	123.378	-38.8896	-7.07798	
3	0.025	132.223	14.2884	-16.479	136.579	23.858	-47.7125	137.823	15.9062	-86.2484	126.989	1.2661	-107.859	143.01	-26.6796	-83.81	119.352	-6.97621	-101.066	109.534	2.87068	-68.7827	119.815	-42.589	-88.9888	96.1835	-14.7047	-95.6367	97.279	-5.7749	-57.7508	99.8821	-44.1221	-87.3225	80.7976	-18.605	-86.0473	89.4695	-12.7424	-51.9644	84.6854	-51.0163	-73.6221	70.2613	-23.3316	-76.4806	78.1161	-16.4453	-42.2792	114.733	-55.7149	-22.2467	104.404	-45.2538	12.0074	138.138	-26.7692	-9.71205	
4	0.0333333	124.375	31.4241	-14.4681	123.972	42.549	-44.2877	127.716	40.7628	-81.9277	122.447	21.3346	-104.386	146.77	-0.634721	-85.86	121.389	11.5475	-101.254	106.607	14.5143	-67.3614	136.365	-18.2878	-86.524	101.712	-2.16801	-94.9991	96.1827	5.27681	-58.9589	116.775	-31.4811	-83.8357	89.616	-11.7449	-86.3886	92.4125	-7.06643	-50.1512	102.18	-45.4995	-73.7402	77.9406	-19.4672	-75.2831	83.5709	-16.5558	-42.9864	129.369	-40.2066	-21.1715	117.903	-39.6853	11.3741	139.01	-10.0064	-5.27493	
5	0.0416667	106.419	43.8854	-11.7819	102.001	54.9712	-39.6431	103.01	57.8606	-73.5088	105.983	41.9145	-98.4881	138.456	29.9453	-81.7073	109.423	25.5145	-95.9526	95.7193	31.8782	-61.565	134.611	4.6087	-85.1432	98.5246	6.90666	-95.3932	88.3018	12.3442	-58.1234	120.068	-10.6872	-86.0539	89.3056	-7.90898	-87.1263	89.0916	0.320838	-52.3096	111.17	-30.8803	-77.3875	83.3628	-16.7085	-76.3	83.9064	-14.2141	-39.1677	137.329	-23.833	-24.287	126.647	-22.4976	8.1378	136.878	11.3346	-7.04748	
6	0.05	84.6218	45.5303	-7.8555	75.524	61.8627	-35.5219	77.7892	66.7875	-73.4019	84.7654	52.5145	-98.566	119.848	47.7093	-78.5112	91.0056	40.097	-93.1786	80.9286	30.8172	-59.7763	123.392	26.8516	-83.8697	89.0043	16.8585	-92.7502	79.1773	14.9	-53.9128	116.767	0.93316	-85.2907	85.8983	-4.0192	-84.9076	83.0449	-0.132377	-49.3122	116	-15.4182	-73.9212	81.4331	-17.2846	-72.3632	84.3102	-13.1905	-37.6758	136.257	-0.895121	-19.9426	124.836	-6.25629	11.2489	122.975	29.8265	-3.94463	
7	0.0583333	61.8217	42.3546	-1.9605	51.5187	56.1305	-33.0774	51.929	61.9758	-69.1782	64.3693	52.5529	-96.2869	96.6199	58.7511	-76.902	73.1953	38.5676	-89.9003	63.118	31.4149	-55.5521	105.506	35.1253	-83.308	75.0633	17.6934	-89.3432	70.3239	12.6702	-47.4151	106.548	10.1255	-84.0185	78.9478	-3.53235	-82.3236	74.8789	2.60238	-47.8791	112.779	-5.01676	-72.6881	80.5753	-13.9205	-74.2565	78.2983	-14.1543	-38.2653	128.711	16.2565	-22.2099	118.628	3.87615	14.1255	104.021	40.2116	1.22933	
8	0.0666667	48.3714	36.7598	-4.04809	31.0703	47.7156	-30.3338	30.9874	52.6052	-64.3778	41.5342	47.8819	-92.7234	75.351	58.213	-75.7168	55.4051	37.5453	-89.6486	48.5849	25.5811	-57.7971	88.9915	39.5722	-80.811	61.661	13.8242	-85.3899	57.0818	9.27889	-50.6357	95.2944	19.8663	-79.7297	70.8922	-0.330066	-82.5707	68.8749	0.703006	-43.2879	103.406	0.898043	-73.3391	73.3699	-13.2039	-70.3154	74.8121	-16.6358	-39.0644	118.215	22.3782	-20.2475	111.573	10.1984	11.8991	88.182	40.2865	2.62696	
9	0.075	35.6702	33.7153	2.37173	19.5645	42.6437	-28.9932	17.2708	48.5026	-62.6349	30.0549	45.0667	-91.531	63.3403	56.6931	-74.79	43.5505	38.0275	-89.1071	38.8581	24.401	-53.6674	73.4257	42.151	-82.1242	52.1062	12.2388	-84.3299	47.8809	7.18568	-48.2835	85.7977	20.6967	-79.2365	62.6593	-0.616042	-80.9814	60.8446	0.379641	-43.428	96.572	1.93117	-73.4338	68.0547	-15.2953	-69.3496	67.1602	-12.9102	-36.7834	103.409	27.4245	-18.1368	104.124	14.6561	10.9003	80.1245	41.718	4.39952	
10	0.0833333	32.949	31.9946	0.57911	12.2044	41.9505	-28.9665	7.26968	45.5482	-63.8444	22.2617	39.9201	-90.5156	53.1821	56.9284	-71.5462	33.6322	31.3326	-86.0356	33.8188	18.3096	-54.2634	67.1217	38.3702	-81.2879	48.2146	9.56437	-86.7122	44.0651	3.99477	-47.0141	77.3054	16.671	-82.0073	56.4208	-4.73878	-79.6789	55.3062	-2.53568	-42.5653	89.9744	0.333061	-73.1685	62.5586	-16.845	-68.4939	63.4391	-14.0837	-33.1437	97.7782	27.537	-17.3096	98.7521	16.0923	14.8041	71.795	40.3127	3.46753	
11	0.0916667	25.9039	27.3308	5.07311	10.2259	34.87	-24.6691	3.05659	41.4991	-63.8776	14.6574	36.1437	-90.8534	42.8939	52.1702	-73.7	27.785	25.5885	-85.3934	25.5783	15.8869	-50.2917	58.8181	37.2536	-78.7893	38.5452	5.27932	-84.9843	33.7185	0.62359	-45.9304	70.0348	14.0942	-82.035	50.3025	-9.22051	-79.2117	48.7799	-4.729	-41.1116	78.2007	0.202929	-74.4912	54.5738	-21.8213	-66.7668	57.8094	-19.5632	-34.4195	94.6071	26.3486	-23.5602	93.9725	14.9875	11.8134	64.1395	42.1794	-0.17804	
12	0.1	18.1462	26.1023	6.90853	2.20409	30.9304	-22.4952	-6.73364	34.1385	-55.9822	1.35489	30.9482	-84.4709	31.7898	48.1898	-74.9015	17.9573	20.7706	-83.9913	12.7367	9.50952	-53.1176	47.0394	32.1978	-82.616	30.2126	-0.682941	-82.9399	27.059	-6.17939	-46.3123	59.4962	11.0642	-82.2419	41.1211	-14.9955	-77.5818	36.8324	-10.5554	-41.8569	72.8396	-3.9048	-75.5952	46.6927	-22.8668	-69.7796	46.0317	-21.7554	-37.065	86.7038	26.0993	-21.7896	87.6954	13.5699	10.609	58.886	39.9868	4.24065	
13	0.108333	13.509	20.9636	6.61168	-7.62585	24.9751	-20.2809	-15.1618	28.233	-53.294	-12.8307	24.0461	-80.2254	23.0119	41.633	-70.408	7.44853	15.8668	-85.0643	2.3464	-1.24475	-51.0425	42.1353	28.1272	-79.416	21.2632	-1.32066	-89.4864	15.3372	-16.0995	-49.6081	52.1291	6.83742	-83.5609	30.0257	-12.3212	-83.548	24.997	-22.1033	-50.8419	68.5602	-6.46386	-72.8307	39.6384	-27.7566	-74.4222	32.0933	-29.1158	-46.605	76.0514	21.3588	-18.5051	80.0371	13.0045	10.2837	49.0323	37.6457	5.14837	
14	0.116667	2.1877	14.9467	10.2239	-21.6536	15.9092	-13.9906	-28.9228	15.8	-48.4196	-25.2532	11.4679	-79.407	8.10137	34.6323	-72.6783	-2.83626	7.64791	-88.653	-10.808	-15.9422	-66.1012	27.4889	24.8431	-79.3183	15.2246	-3.60769	-97.4184	3.31595	-30.3163	-67.2306	48.3331	5.03448	-81.7152	27.2709	-19.2481	-91.9172	14.2807	-34.045	-61.4882	63.3536	-9.27974	-68.809	43.5489	-31.9391	-85.4193	23.2485	-43.5261	-57.9936	67.9325	15.4403	-18.9952	69.8625	13.1322	14.1003	37.3607	31.9378	1.1602	
15	0.125	-9.96005	2.8507	14.2002	-32.2825	-3.96342	-6.67073	-47.7498	-9.97362	-37.3496	-47.8577	-19.2916	-63.8584	-4.07507	16.5365	-69.7417	-13.2574	-5.69144	-94.4368	-19.3429	-37.3727	-89.0361	20.9082	11.5659	-79.7487	9.27866	-12.4622	-105.571	-0.54731	-46.5399	-98.3698	43.1246	-1.13655	-77.3354	40.0882	-22.4741	-99.655	19.2814	-53.4788	-89.5299	65.3471	-18.876	-61.3466	57.1838	-39.9875	-86.1447	33.1777	-62.1123	-80.532	58.4938	7.92268	-15.4176	62.7511	10.4879	13.2793	24.6814	20.5957	4.12216	
16	0.133333	-15.8459	-17.7443	19.6201	-44.8136	-28.5916	5.30768	-63.3077	-41.97	-21.214	-71.4159	-56.512	-42.6924	-13.1696	-11.6909	-66.5236	-21.5067	-24.9903	-93.4517	-21.3445	-53.6438	-111.678	15.85	-10.0953	-72.2517	13.1335	-24.5723	-105.855	13.704	-54.451	-126.176	43.0522	-19.5377	-65.3272	46.709	-34.4314	-97.1006	37.7314	-63.5636	-113.636	66.9155	-34.4336	-47.7221	71.4892	-53.3064	-78.3022	62.4	-78.6913	-91.4742	47.0326	-6.09654	-11.5718	52.3934	2.08175	18.8397	14.4382	2.74284	5.349	
17	0.141667	-22.5119	-15.8906	18.8126	-46.1428	-31.9262	6.27952	-72.1051	-45.8512	-7.39663	-85.4892	-60.279	-23.4767	-12.1237	-15.8709	-67.456	-19.1601	-24.9052	-93.6369	-22.9645	-39.7694	-117.16	18.1082	-15.7943	-75.4121	17.2226	-26.0062	-107.855	15.0224	-39.9459	-135.478	42.6363	-23.9168	-68.248	52.1784	-36.2872	-95.8845	48.4786	-49.7233	-119.808	66.9686	-38.5775	-49.7773	78.3001	-55.47	-71.7388	86.5407	-70.7327	-89.3623	45.9521	-5.68471	-12.3664	48.879	4.85749	20.0181	8.43886	3.82177	3.87508	
18	0.15	-22.4127	-2.04749	25.0592	-46.8479	-18.3896	10.5675	-74.0395	-31.711	-0.267607	-93.0354	-44.5809	-13.5072	-14.9145	-6.6697	-62.1426	-20.1736	-14.5455	-87.7532	-23.5219	-25.9243	-117.282	15.1598	-9.09973	-74.5877	17.8095	-19.2692	-100.919	19.0064	-31.3574	-133.494	46.1032	-21.6783	-62.7416	48.3122	-31.2133	-88.4274	48.274	-43.3563	-117.616	64.4841	-36.813	-44.2009	73.76	-55.2709	-67.6812	82.3872	-67.3138	-82.074	43.0345	0.784608	-13.1594	47.7603	10.0723	18.671	13.8022	14.1213	3.2787	
19	0.158333	-14.7635	21.9277	25.5949	-41.152	10.7234	14.9308	-69.5654	2.61474	5.84747	-93.8558	-6.14077	-4.44746	-12.3677	6.85536	-55.7521	-23.153	-1.38469	-82.5038	-32.4326	-10.8305	-105.638	17.4475	-7.19013	-70.3856	10.4061	-19.0743	-97.7852	5.33386	-31.5145	-126.831	38.0843	-24.8222	-63.3737	34.2614	-36.1825	-85.567	30.9704	-51.1823	-112.325	52.9802	-40.5624	-39.3254	56.5863	-61.9403	-57.9712	58.3377	-77.2298	-80.075	46.5351	3.90272	-13.8275	58.1503	14.5549	15.1396	24.8358	26.8738	5.72369	
20	0.166667	4.83995	47.3664	23.8195	-24.0029	51.7358	21.1847	-59.435	55.6134	11.0305	-80.3507	47.8037	-0.61584	-6.14398	21.3305	-55.4308	-24.416	18.1598	-77.3398	-38.7647	7.54419	-98.2853	10.4697	2.35769	-62.7841	-1.77148	-12.5971	-88.0763	-18.6321	-25.7261	-116.526	22.585	-23.6655	-56.9656	11.1541	-38.1529	-77.4421	2.09209	-54.0297	-95.5734	35.6466	-46.7885	-31.5824	26.7539	-66.2146	-44.0578	20.8548	-85.1979	-61.1836	53.9935	0.761361	-8.99692	69.3834	11.6254	15.7196	35.0224	37.7568	-0.455262	
21	0.175	25.0492	68.6638	19.5859	-3.5714	79.7533	15.5956	-33.5838	97.0618	8.55497	-56.4175	98.2728	2.5704	-3.23859	39.3509	-57.6936	-19.6255	39.1538	-74.8136	-43.6641	30.4528	-96.4527	4.72501	11.2521	-62.1422	-17.7513	3.63274	-85.7033	-37.3717	-9.21145	-105.88	7.91619	-18.4664	-50.816	-8.0925	-28.2033	-64.5614	-27.4113	-41.1509	-82.6428	11.2512	-39.162	-25.1786	-6.45847	-53.4377	-34.1529	-19.3603	-69.8489	-46.448	49.1276	6.52884	-8.83657	68.88	9.28147	14.8131	51.2625	39.72	-1.61054	
22	0.183333	42.3658	75.0522	15.6897	19.6377	93.4515	13.933	-8.14013	116.487	1.34491	-30.1798	126.59	-3.57617	4.67615	52.2029	-58.7153	-16.712	52.829	-76.8604	-38.8255	49.4818	-92.9688	3.94034	19.2542	-57.1036	-22.1774	14.3924	-79.7356	-50.692	9.79453	-99.5475	-0.027934	-6.94203	-43.0958	-22.3459	-13.5573	-59.7222	-47.2739	-22.7835	-73.5446	-5.26498	-23.3805	-20.7136	-25.8303	-36.4941	-22.4587	-45.6027	-46.7776	-36.2581	43.6211	6.86455	-12.7069	68.0984	8.67876	15.6479	55.5457	40.4066	-6.27656	
23	0.191667	61.6352	75.4301	11.4786	42.0254	98.8638	5.79187	22.7737	122.781	-4.20242	5.87951	144.75	-11.0412	15.3966	54.0655	-57.7556	-5.31839	63.6301	-80.3043	-28.854	62.9128	-93.8956	5.23401	28.77	-58.1334	-23.9692	26.7554	-78.5962	-50.6634	28.001	-94.6631	-9.11897	4.72196	-41.4669	-35.2777	-0.669379	-55.4274	-61.3082	2.90579	-70.4526	-16.45	-10.1833	-14.0686	-37.05	-12.3086	-16.8073	-63.5308	-20.6047	-21.9671	38.0621	4.93383	-10.8411	66.13	1.01431	13.6433	64.8842	35.0762	-6.84346	
